HIERARCHY
ROOT Hips
{
	OFFSET 0.000000 0.000000 0.000000 
	CHANNELS 6 Xposition Yposition Zposition Zrotation Yrotation Xrotation
	JOINT LeftUpLeg
	{
		OFFSET 1.363060 -1.794630 0.839290 
		CHANNELS 3 Zrotation Yrotation Xrotation
		JOINT LeftLeg
		{
			OFFSET 2.448110 -6.726130 0.000000 
			CHANNELS 3 Zrotation Yrotation Xrotation
			JOINT LeftFoot
			{
				OFFSET 2.562200 -7.039590 0.000000 
				CHANNELS 3 Zrotation Yrotation Xrotation
				JOINT LeftToeBase
				{
					OFFSET 0.157640 -0.433110 2.322550 
					CHANNELS 3 Zrotation Yrotation Xrotation
					End Site
					{
						OFFSET 0.000000 0.000000 0.000000 
					}
				}
			}
		}
	}
	JOINT RightUpLeg
	{
		OFFSET -1.305520 -1.794630 0.839290 
		CHANNELS 3 Zrotation Yrotation Xrotation
		JOINT RightLeg
		{
			OFFSET -2.542530 -6.985550 0.000000 
			CHANNELS 3 Zrotation Yrotation Xrotation
			JOINT RightFoot
			{
				OFFSET -2.568260 -7.056230 0.000000 
				CHANNELS 3 Zrotation Yrotation Xrotation
				JOINT RightToeBase
				{
					OFFSET -0.164730 -0.452590 2.363150 
					CHANNELS 3 Zrotation Yrotation Xrotation
					End Site
					{
						OFFSET 0.000000 0.000000 0.000000 
					}
				}
			}
		}
	}
	JOINT Spine
	{
		OFFSET 0.028270 2.035590 -0.193380 
		CHANNELS 3 Zrotation Yrotation Xrotation
		JOINT Spine1
		{
			OFFSET 0.056720 2.048850 -0.042750 
			CHANNELS 3 Zrotation Yrotation Xrotation
			JOINT Neck1
			{
				OFFSET -0.054170 1.746240 0.172020 
				CHANNELS 3 Zrotation Yrotation Xrotation
				JOINT Head
				{
					OFFSET 0.104070 1.761360 -0.123970 
					CHANNELS 3 Zrotation Yrotation Xrotation
					End Site
					{
						OFFSET 0.000000 0.000000 0.000000 
					}
				}
			}
			JOINT LeftArm
			{
				OFFSET 3.362410 1.200890 -0.311210 
				CHANNELS 3 Zrotation Yrotation Xrotation
				JOINT LeftForeArm
				{
					OFFSET 4.983000 -0.000000 -0.000000 
					CHANNELS 3 Zrotation Yrotation Xrotation
					JOINT LeftHand
					{
						OFFSET 3.483560 -0.000000 -0.000000 
						CHANNELS 3 Zrotation Yrotation Xrotation
						JOINT LeftHandIndex1
						{
							OFFSET 0.715260 -0.000000 -0.000000 
							CHANNELS 3 Zrotation Yrotation Xrotation
							End Site
							{
								OFFSET 0.000000 0.000000 0.000000 
							}
						}
					}
				}
			}
			JOINT RightArm
			{
				OFFSET -3.136600 1.374050 -0.404650 
				CHANNELS 3 Zrotation Yrotation Xrotation
				JOINT RightForeArm
				{
					OFFSET -5.241900 -0.000000 -0.000000 
					CHANNELS 3 Zrotation Yrotation Xrotation
					JOINT RightHand
					{
						OFFSET -3.444170 -0.000000 -0.000000 
						CHANNELS 3 Zrotation Yrotation Xrotation
						JOINT RightHandIndex1
						{
							OFFSET -0.622530 -0.000000 -0.000000 
							CHANNELS 3 Zrotation Yrotation Xrotation
							End Site
							{
								OFFSET 0.000000 0.000000 0.000000 
							}
						}
					}
				}
			}
		}
	}
}
MOTION
Frames: 6
Frame Time: 0.041667
3.818700 1.930500 15.754700 -51.397100 -8.156400 -61.369100 -15.923200 7.113900 -87.933400 32.668500 15.604800 129.882900 1.177300 -5.225100 22.998900 1.523600 7.794000 22.090000 15.508600 15.118700 -61.887800 -33.704400 -14.708800 133.843100 -0.010700 16.271200 23.180400 -0.415100 4.135700 -11.458800 1.352500 9.543900 -1.141700 7.768700 4.779300 0.312400 1.130000 6.233200 34.749200 1.469700 3.075000 15.447800 35.445300 -51.848000 -42.834300 17.416900 -27.404100 -4.277500 0.000000 0.000000 -20.530100 -7.125000 0.000000 0.000000 86.479900 33.551400 112.136700 -83.896800 59.858800 -54.716900 0.000000 0.000000 -21.752500 7.125000 0.000000 0.000000 
3.844000 1.941200 15.769000 -51.910400 -7.820300 -61.373500 -16.127200 7.060200 -87.711100 32.658200 15.613100 129.844400 1.185100 -5.191200 23.043700 1.542600 7.840100 22.229400 15.488500 15.231600 -61.699000 -33.697000 -14.715700 133.814000 -0.067800 16.047800 23.413700 -0.400900 4.064900 -11.259300 1.385100 9.409600 -1.079100 7.891100 4.705700 0.401600 1.123300 6.177000 34.862200 1.482500 3.031200 15.506500 35.825800 -51.964700 -43.523600 17.383400 -27.360400 -4.262000 0.000000 0.000000 -20.435800 -7.125000 0.000000 0.000000 86.242300 33.564100 112.012500 -84.120100 59.869000 -54.910100 0.000000 0.000000 -21.662700 7.125000 0.000000 0.000000 
3.870100 1.952600 15.783200 -52.427100 -7.472400 -61.395300 -16.338800 7.011500 -87.456900 32.644300 15.624300 129.792700 1.193700 -5.151300 23.090500 1.556800 7.874500 22.333500 15.460300 15.328200 -61.494700 -33.687000 -14.724900 133.774800 -0.135300 15.794100 23.701600 -0.373300 3.924400 -10.864100 1.423800 9.280200 -1.022000 8.025400 4.635500 0.476500 1.116400 6.121600 34.962800 1.496600 2.986100 15.550700 36.177300 -52.113100 -44.223500 17.348200 -27.314500 -4.245900 0.000000 0.000000 -20.236400 -7.125000 0.000000 0.000000 85.992500 33.544700 111.852300 -84.299900 59.876900 -55.065600 0.000000 0.000000 -21.503200 7.125000 0.000000 0.000000 
3.897100 1.964300 15.797500 -52.954200 -7.114300 -61.420600 -16.554000 6.947800 -87.189500 32.627900 15.637400 129.731900 1.202800 -5.105500 23.138900 1.571800 7.910500 22.442600 15.422500 15.407600 -61.294100 -33.675800 -14.735300 133.730600 -0.208300 15.537400 24.032300 -0.340000 3.747200 -10.366400 1.466800 9.150900 -0.972300 8.168000 4.566100 0.542400 1.108200 6.068800 35.055000 1.511800 2.940600 15.584700 36.509000 -52.286900 -44.925200 17.311600 -27.266700 -4.229100 0.000000 0.000000 -19.959900 -7.125000 0.000000 0.000000 85.740600 33.499300 111.663400 -84.409700 59.881600 -55.160600 0.000000 0.000000 -21.239700 7.125000 0.000000 0.000000 
3.924600 1.976200 15.812300 -53.495600 -6.756700 -61.435100 -16.758900 6.865900 -86.936600 32.612000 15.650100 129.673200 1.213700 -5.048700 23.195300 1.584900 7.941900 22.537600 15.386100 15.485200 -61.115400 -33.663800 -14.746400 133.683400 -0.288600 15.261100 24.399900 -0.301400 3.529800 -9.757500 1.512000 9.014300 -0.917300 8.318800 4.491600 0.626900 1.085600 6.026900 35.143100 1.519500 2.900400 15.627400 36.861800 -52.437300 -45.619700 17.273700 -27.217200 -4.211800 0.000000 0.000000 -19.663200 -7.125000 0.000000 0.000000 85.512300 33.468800 111.467900 -84.432800 59.882600 -55.180500 0.000000 0.000000 -20.866600 7.125000 0.000000 0.000000 
3.952900 1.988100 15.827500 -54.052900 -6.405100 -61.440800 -16.945500 6.771400 -86.696700 32.598100 15.661200 129.621500 1.225400 -4.987700 23.255600 1.595400 7.967000 22.614000 15.357300 15.563900 -60.957300 -33.650700 -14.758500 133.632200 -0.367900 15.025000 24.800700 -0.268700 3.334600 -9.211600 1.559500 8.872000 -0.857800 8.471900 4.412700 0.727300 1.055100 5.991400 35.233400 1.523100 2.863900 15.682500 37.253000 -52.560300 -46.274800 17.228600 -27.158200 -4.191200 0.000000 0.000000 -19.400000 -7.125000 0.000000 0.000000 85.306200 33.454200 111.269400 -84.363900 59.879600 -55.120900 0.000000 0.000000 -20.394200 7.125000 0.000000 0.000000 
